PathFileType	4	(X/Y/Z)	..\data\2015043\dynamic\2015043_C5_05.trc
DataRate	CameraRate	NumFrames	NumMarkers	Units	OrigDataRate	OrigDataStartFrame	OrigNumFrames
100.000000	100.000000	4	52	mm	100.000000	20	167
Frame#	Time	L_IAS			L_IPS			R_IPS			R_IAS			L_FTC			L_FLE			L_FME			L_FAX			L_TTC			L_FAL			L_TAM			L_FCC			L_FM1			L_FM2			L_FM5			R_FTC			R_FLE			R_FME			R_FAX			R_TTC			R_FAL			R_TAM			R_FCC			R_FM1			R_FM2			R_FM5			CV7			TV10			SXS			SJN			L_SIA			L_SRS			L_SAA			L_SAE			L_HLE			L_HME			L_UOA			L_RSP			L_UHE			L_HM2			L_HM5			R_SIA			R_SRS			R_SAA			R_SAE			R_HLE			R_HME			R_UOA			R_RSP			R_UHE			R_HM2			R_HM5			
		X1	Y1	Z1	X2	Y2	Z2	X3	Y3	Z3	X4	Y4	Z4	X5	Y5	Z5	X6	Y6	Z6	X7	Y7	Z7	X8	Y8	Z8	X9	Y9	Z9	X10	Y10	Z10	X11	Y11	Z11	X12	Y12	Z12	X13	Y13	Z13	X14	Y14	Z14	X15	Y15	Z15	X16	Y16	Z16	X17	Y17	Z17	X18	Y18	Z18	X19	Y19	Z19	X20	Y20	Z20	X21	Y21	Z21	X22	Y22	Z22	X23	Y23	Z23	X24	Y24	Z24	X25	Y25	Z25	X26	Y26	Z26	X27	Y27	Z27	X28	Y28	Z28	X29	Y29	Z29	X30	Y30	Z30	X31	Y31	Z31	X32	Y32	Z32	X33	Y33	Z33	X34	Y34	Z34	X35	Y35	Z35	X36	Y36	Z36	X37	Y37	Z37	X38	Y38	Z38	X39	Y39	Z39	X40	Y40	Z40	X41	Y41	Z41	X42	Y42	Z42	X43	Y43	Z43	X44	Y44	Z44	X45	Y45	Z45	X46	Y46	Z46	X47	Y47	Z47	X48	Y48	Z48	X49	Y49	Z49	X50	Y50	Z50	X51	Y51	Z51	X52	Y52	Z52	

21	0.2	-893.7995605468752	976.9093017578127	150.2444610595702	-1069.674560546875	997.929138183594	230.4042358398437	-1063.75146484375	1006.248962402344	327.9577636718749	-886.6633300781252	996.6030883789065	390.7443542480469	-989.068054199219	880.247009277344	100.3900527954101	-981.7192382812502	470.0979614257814	100.0647506713866	-945.7412719726565	442.642303466797	216.9375457763671	-1030.713500976563	424.4258728027345	98.88512420654287	-982.6475830078127	364.6773071289063	134.2975616455077	-1304.537719726563	224.6210937500001	178.2089843749999	-1255.385498046875	191.8301544189453	252.8847351074218	-1357.134765625	228.8538055419922	240.8287811279296	-1264.859985351563	57.11137008666994	243.2401428222655	-1269.024291992188	66.3981399536133	179.0856018066405	-1315.697875976563	90.47265625000001	146.2307128906249	-975.7127685546877	905.3235473632815	447.5176086425781	-838.751647949219	491.153289794922	404.2112731933594	-837.7393188476565	491.775848388672	279.7880554199218	-838.8020019531252	422.8614501953126	408.4026184082031	-776.8837890625002	421.9412841796876	341.5684814453124	-865.2889404296877	78.12950134277345	358.2679748535156	-832.6666259765627	96.7983322143555	269.1264343261718	-911.1760253906252	29.6889820098877	310.8736877441406	-705.5271606445314	29.08882904052735	288.0111694335937	-708.6649169921876	38.63095855712891	344.2080688476562	-765.2537231445314	26.47608184814454	398.7041931152344	-1005.296569824219	1504.408447265625	270.0219421386718	-1069.3203125	1277.453002929688	269.7677917480468	-839.2156372070315	1269.675048828125	280.6064758300781	-891.0709228515627	1422.635986328125	279.1416015624999	-1091.037109375	1304.15185546875	172.4768066406249	-1059.873168945313	1429.211669921875	175.4902496337889	-1002.371215820313	1434.20361328125	89.57413482666004	-959.7510375976565	1436.621704101563	70.80136871337881	-945.4323730468752	1110.340209960938	-23.99729919433606	-980.5513916015627	1085.082885742188	55.27373886108388	-980.309753417969	1065.288940429688	-5.001967430114867	-756.1492309570314	926.581726074219	53.10807800292961	-781.628112792969	900.1407470703127	-14.13788318634043	-690.1893310546876	860.6648559570315	58.54420471191399	-762.8101196289064	831.272888183594	-8.865143775940037	-1101.524658203125	1307.919189453125	345.8260192871093	-1069.272216796875	1429.414672851563	348.7032775878906	-1040.007934570313	1431.100952148438	447.0414428710938	-1012.302917480469	1425.297607421875	484.0093383789062	-1061.95703125	1097.795043945313	532.6697387695312	-1082.4423828125	1092.776123046875	460.7196960449219	-1095.443359375	1074.379760742188	495.4512634277344	-968.9935913085941	841.8068847656252	517.0428466796875	-1044.009033203125	844.0107421875002	551.1983642578125	-953.6169433593753	754.7714233398439	525.0966186523438	-1049.850952148438	770.2811279296877	557.1744384765625	
22	0.21	-882.360290527344	978.2922973632815	150.8175964355468	-1058.028686523438	998.9841308593752	231.8111877441405	-1051.62841796875	1007.557983398438	329.2905273437499	-874.2321777343752	997.6065063476565	391.4423217773438	-976.835388183594	881.2651367187502	101.5018005371093	-958.1644287109377	471.3589477539064	98.79061126708976	-921.1226196289065	443.948699951172	215.4813842773437	-1006.4072265625	426.0259704589845	97.72512054443349	-958.4582519531252	365.8732604980469	132.898941040039	-1281.932373046875	230.1929473876954	178.7844085693358	-1232.56591796875	195.8412628173829	252.9442443847655	-1334.242797851563	233.9022827148438	241.926788330078	-1243.35546875	60.88399124145509	239.6048278808593	-1247.76171875	71.53463745117189	175.8982849121093	-1294.136596679688	97.54228210449222	143.9117584228514	-963.5815429687502	906.3579101562502	448.4570617675781	-832.2624511718752	490.7544555664064	404.3190612792969	-831.3214111328127	491.4893188476564	279.9058837890624	-833.4085083007815	422.425994873047	408.2731323242188	-771.4363403320315	420.7102050781251	341.5699462890624	-864.8111572265627	78.2512664794922	357.9499511718749	-832.1574707031252	96.602897644043	268.7632141113281	-910.9046630859377	29.81146049499512	310.7056274414062	-705.2239379882814	28.91887474060059	287.8101806640624	-708.2649536132814	38.68521881103516	344.2619934082031	-765.2301025390626	26.67743301391602	398.9178466796875	-992.9514770507815	1505.773681640625	270.9742126464843	-1056.93408203125	1278.760498046875	271.3839721679687	-826.8560180664065	1270.862182617188	280.3324890136718	-878.682800292969	1423.9501953125	279.3211669921874	-1079.421142578125	1305.478149414063	174.2110748291014	-1048.076904296875	1430.635009765625	176.7920989990233	-991.131286621094	1435.560180664063	90.49361419677723	-948.6975708007815	1437.967407226563	71.34628295898428	-936.6484985351565	1111.40869140625	-23.31549453735363	-971.8117675781252	1086.595581054688	56.08263778686513	-971.7791137695315	1067.031005859375	-4.067470550537229	-749.9793701171876	924.0007324218752	51.36743545532219	-776.499938964844	898.3493652343752	-15.85245037078867	-685.3634033203126	856.691833496094	56.02243804931634	-759.0497436523439	829.0657958984377	-11.01810550689707	-1088.695190429688	1309.23193359375	347.6100769042968	-1056.297607421875	1430.697387695313	350.2233581542968	-1026.297485351563	1432.390869140625	448.4299011230469	-998.2631835937503	1426.50048828125	485.2230834960938	-1047.314697265625	1098.856201171875	534.3580322265625	-1068.445434570313	1093.82373046875	462.6027221679688	-1080.963623046875	1075.327026367188	497.4526062011719	-953.7409057617191	843.1177978515627	518.1151733398438	-1028.545532226563	845.0571289062502	552.7138671875	-937.9641723632816	756.1718750000001	526.175537109375	-1034.069213867188	771.264587402344	558.735107421875	
23	0.22	-871.0317382812502	979.8673095703127	151.2931976318359	-1046.518188476563	1000.160827636719	233.125274658203	-1039.662841796875	1008.901550292969	330.5251770019531	-861.9652099609377	998.620544433594	392.0607299804688	-964.708679199219	882.5400390625002	102.4496994018554	-934.6251220703127	473.0773010253907	97.67662811279288	-896.837829589844	445.9467163085939	214.2947082519531	-982.040466308594	427.9247436523439	96.75085449218741	-934.0049438476565	367.5859069824219	131.7844238281249	-1258.290283203125	234.6255493164063	179.2972259521483	-1208.7314453125	199.1310577392579	253.0644226074218	-1310.56640625	237.3065795898438	242.7344970703124	-1219.391967773438	64.10571289062501	236.0182037353515	-1223.911254882813	76.22872924804689	172.7401580810546	-1270.154052734375	103.6126861572266	141.4547576904296	-951.6646728515627	907.352233886719	449.2412109375	-826.2952880859377	490.3460388183595	404.4271240234375	-825.3157348632815	491.1662597656251	280.0498657226562	-828.5416259765627	421.9849548339845	408.1702880859375	-766.5014648437501	419.488983154297	341.6361999511718	-864.476257324219	78.33235931396486	357.6284484863281	-831.738220214844	96.40554809570315	268.4266357421874	-910.7318115234377	29.90392875671387	310.4844665527343	-705.0122680664064	28.8338851928711	287.7169189453124	-708.0177001953126	38.75958633422852	344.3605346679687	-765.3044433593751	26.8230323791504	399.0722045898438	-980.7261352539065	1507.238037109375	271.8350524902343	-1044.707763671875	1280.15380859375	272.9541320800781	-814.6246337890627	1272.152465820313	279.9222412109374	-866.4475097656252	1425.326538085938	279.4034118652343	-1068.00537109375	1306.906494140625	175.9156341552733	-1036.453857421875	1432.139892578125	178.041046142578	-980.0920410156252	1436.976196289063	91.33563995361318	-937.8529052734377	1439.363525390625	71.80006408691396	-927.9910888671877	1112.519775390625	-22.63475990295422	-963.2568359375002	1088.152954101563	56.87353134155263	-963.3673095703127	1068.829833984375	-3.133412361145139	-744.1130371093751	921.4327392578127	49.53395843505852	-771.693054199219	896.6138305664065	-17.64313888549815	-680.8565063476564	852.7951660156252	53.32984924316399	-755.6187133789064	826.9421997070315	-13.26565170288096	-1076.025268554688	1310.677734375	349.3762207031249	-1043.468139648438	1432.090087890625	351.6819152832031	-1012.689697265625	1433.809204101563	449.7522888183594	-984.3057861328128	1427.830810546875	486.3596801757812	-1032.546142578125	1100.039184570313	536.0335083007812	-1054.290649414063	1094.908325195313	464.5239868164062	-1066.31201171875	1076.333374023438	499.4984436035156	-938.2020874023441	844.5474853515627	519.111328125	-1012.727416992188	846.2026367187502	554.2857666015625	-921.9692382812503	757.7058715820314	527.1965942382812	-1017.904296875	772.3562622070315	560.4066162109375	
24	0.23	-859.7678833007815	981.6218872070315	151.6960144042968	-1035.09375	1001.478454589844	234.3278656005859	-1027.823852539063	1010.292297363281	331.6464233398437	-849.8374633789065	999.6550292968752	392.6117858886719	-952.6257324218752	884.0767822265627	103.223648071289	-911.194274902344	475.2441711425782	96.71665954589835	-872.9348754882815	448.581756591797	213.3568115234374	-957.7295532226565	430.1155395507814	95.94924926757803	-909.3696899414065	369.8053588867188	130.8977508544921	-1233.704711914063	237.7895965576172	179.6962738037108	-1183.932983398438	201.5910949707032	253.1817626953124	-1286.169555664063	239.0240020751954	243.2206420898436	-1193.130981445313	66.6543426513672	232.6014099121093	-1197.678955078125	80.2655715942383	169.7153320312499	-1243.959350585938	108.4484558105469	138.9644317626952	-939.941589355469	908.3286132812502	449.8748168945312	-820.8067626953127	489.9510192871095	404.5535278320312	-819.7091064453127	490.8225097656251	280.2341918945312	-824.148620605469	421.5616455078126	408.1172790527344	-762.0464477539064	418.3023986816407	341.7720947265624	-864.241149902344	78.38359832763673	357.3258972167968	-831.3781738281252	96.21440124511722	268.1295776367187	-910.6404418945315	29.99347305297852	310.2397460937499	-704.8699340820314	28.78767013549805	287.7109374999999	-707.8858642578126	38.81151580810548	344.4910278320312	-765.4432983398439	26.89363670349122	399.1813659667969	-968.6245117187502	1508.791137695313	272.6102905273437	-1032.627319335938	1281.617309570313	274.4631347656249	-802.4985351562502	1273.561157226563	279.4057922363281	-854.363220214844	1426.768188476563	279.4056091308593	-1056.7548828125	1308.428466796875	177.5701599121093	-1024.992309570313	1433.714477539063	179.2346801757812	-969.2293090820315	1438.4599609375	92.11146545410146	-927.1932373046877	1440.822509765625	72.18241882324209	-919.472839355469	1113.695190429688	-21.93705368042004	-954.8651123046877	1089.780883789063	57.6789550781249	-955.0925292968752	1070.702514648438	-2.176689147949336	-738.5468139648439	918.9099121093752	47.60932922363273	-767.2145996093751	894.963806152344	-19.5025634765626	-676.6657714843751	848.999450683594	50.4649467468261	-752.5242309570314	824.9359130859377	-15.60012054443369	-1063.500366210938	1312.241455078125	351.1174926757812	-1030.791137695313	1433.575927734375	353.0690917968749	-999.2065429687502	1435.356201171875	450.9972229003906	-970.4616699218753	1429.29736328125	487.410888671875	-1017.650634765625	1101.348388671875	537.6778564453125	-1039.97412109375	1096.041015625	466.4554443359375	-1051.492919921875	1077.408203125	501.555908203125	-922.3824462890628	846.1082153320315	520.0327758789062	-996.5670776367191	847.4639892578127	555.9016723632812	-905.6544799804691	759.3779296875001	528.1522827148438	-1001.377014160157	773.578308105469	562.1756591796875	
